<svg width="100" height="100" viewBox="0 0 100 100" fill="none" xmlns="http://www.w3.org/2000/svg">
<path d="M50 10C57.9113 10 65.6448 12.346 72.2228 16.7412C78.8008 21.1365 83.9277 27.3836 86.9552 34.6927C89.9827 42.0017 90.7748 50.0444 89.2314 57.8036C87.688 65.5629 83.8784 72.6902 78.2843 78.2843C72.6902 83.8784 65.5629 87.688 57.8036 89.2314C50.0444 90.7748 42.0017 89.9827 34.6927 86.9552C27.3836 83.9277 21.1365 78.8008 16.7412 72.2228C12.346 65.6448 10 57.9113 10 50L18 50C18 56.329 19.8768 62.5159 23.393 67.7782C26.9092 73.0406 31.9069 77.1421 37.7541 79.5641C43.6014 81.9861 50.0355 82.6199 56.2429 81.3851C62.4503 80.1504 68.1521 77.1027 72.6274 72.6274C77.1027 68.1521 80.1504 62.4503 81.3851 56.2429C82.6199 50.0355 81.9861 43.6014 79.5641 37.7541C77.1421 31.9069 73.0406 26.9092 67.7782 23.393C62.5159 19.8768 56.329 18 50 18L50 10Z" fill="white"/>
<path d="M32 14.5L50.75 3.67468L50.75 25.3253L32 14.5Z" fill="white"/>
</svg>
